<svg width="32" height="32" viewBox="0 0 32 32" fill="none" xmlns="http://www.w3.org/2000/svg">
<path d="M23.8232 20.1767L23.8232 20.1767L23.4696 20.5303C23.4696 20.5303 23.4696 20.5303 23.4696 20.5303C23.372 20.6279 23.2137 20.6279 23.1161 20.5303C23.1161 20.5303 23.1161 20.5303 23.1161 20.5303L16.3535 13.7677L16 13.4141L15.6464 13.7677L8.88382 20.5303C8.78618 20.6279 8.62797 20.6279 8.53033 20.5303L8.17673 20.1767C8.07909 20.079 8.07909 19.9208 8.17673 19.8232L15.8232 12.1767C15.9209 12.0791 16.0791 12.0791 16.1767 12.1767L23.8232 19.8232C23.8232 19.8232 23.8232 19.8232 23.8232 19.8232C23.9208 19.9208 23.9208 20.0791 23.8232 20.1767Z" fill="black" stroke="black"/>
</svg>
