<svg width="140" height="56" viewBox="0 0 140 56" fill="none" xmlns="http://www.w3.org/2000/svg">
<path d="M49.6146 37.0475H53.7732V29.9184H55.5813L59.9982 37.0475H64.441L59.5592 29.1952C61.7289 28.5495 63.3561 27.0771 63.3561 24.2875V24.1842C63.3561 20.3614 60.5924 18.5791 56.2271 18.5791H49.6146V37.0475ZM53.7732 27.0771V21.782H56.1237C58.1385 21.782 59.2751 22.4278 59.2751 24.3133V24.4167C59.2751 26.199 58.216 27.0771 56.1237 27.0771H53.7732Z" fill="black"/>
<path d="M71.579 37.3316C75.2726 37.3316 77.5973 35.7044 78.0364 32.7855H74.4977C74.2652 33.9221 73.4129 34.6712 71.6823 34.6712C69.6417 34.6712 68.4277 33.3797 68.3244 31.1325H78.0623V30.0993C78.0623 25.269 74.9627 23.2285 71.4756 23.2285C67.5495 23.2285 64.5273 25.9923 64.5273 30.2542V30.4608C64.5273 34.7745 67.4978 37.3316 71.579 37.3316ZM68.376 28.8336C68.6601 26.9222 69.7967 25.8115 71.4756 25.8115C73.2579 25.8115 74.2911 26.793 74.4203 28.8336H68.376Z" fill="black"/>
<path d="M79.8423 37.0475H83.5618V17.4167H79.8423V37.0475Z" fill="black"/>
<path d="M90.6978 37.3317C92.9194 37.3317 94.2879 36.2985 94.9853 34.9296V37.0476H98.7049V23.5386H94.9853V31.4683C94.9853 33.4573 93.7454 34.4388 92.1704 34.4388C90.5692 34.4388 89.8193 33.5606 89.8193 31.7266V23.5386H86.1002V32.2432C86.1002 35.7819 88.0632 37.3317 90.6978 37.3317Z" fill="black"/>
<path d="M101.244 37.0475H104.99V29.0661C104.99 27.2322 106.152 26.3022 107.598 26.3022C108.916 26.3022 109.717 27.0771 109.717 28.8078V37.0475H113.436V29.0661C113.436 27.2322 114.598 26.3022 116.045 26.3022C117.388 26.3022 118.163 27.0771 118.163 28.8078V37.0475H121.883V28.3945C121.883 24.8041 119.946 23.2285 117.44 23.2285C115.735 23.2285 113.979 23.9517 112.894 25.579C112.248 23.9776 110.905 23.2285 109.123 23.2285C107.108 23.2285 105.661 24.3392 104.99 25.6048V23.5384H101.244V37.0475Z" fill="black"/>
<path d="M130.531 37.3316C134.226 37.3316 136.55 35.7044 136.989 32.7855H133.45C133.218 33.9221 132.365 34.6712 130.635 34.6712C128.594 34.6712 127.38 33.3797 127.277 31.1325H137.015V30.0993C137.015 25.269 133.915 23.2285 130.428 23.2285C126.502 23.2285 123.48 25.9923 123.48 30.2542V30.4608C123.48 34.7745 126.45 37.3316 130.531 37.3316ZM127.329 28.8336C127.613 26.9222 128.75 25.8115 130.428 25.8115C132.21 25.8115 133.244 26.793 133.373 28.8336H127.329Z" fill="black"/>
<path fill-rule="evenodd" clip-rule="evenodd" d="M35.3027 19.684L35.0515 19.2356C34.7277 18.6932 34.2709 18.2425 33.7243 17.9261L21.6882 10.9843C21.1432 10.6682 20.5245 10.5011 19.8945 10.5H19.3743C18.7442 10.5011 18.1256 10.6682 17.5805 10.9843L5.54453 17.9441C5.00098 18.2584 4.54946 18.7099 4.2351 19.2535L3.98398 19.7019C3.66782 20.2469 3.50078 20.8656 3.49966 21.4956V35.3972C3.50078 36.0273 3.66782 36.6459 3.98398 37.1909L4.2351 37.6393C4.55759 38.1766 5.00728 38.6263 5.54453 38.9488L17.5985 45.8905C18.1408 46.2132 18.7612 46.3808 19.3922 46.3748H19.8945C20.5245 46.3737 21.1432 46.2066 21.6882 45.8905L33.7243 38.9309C34.2731 38.6236 34.7264 38.1704 35.0336 37.6214L35.3027 37.173C35.615 36.6264 35.7818 36.0087 35.787 35.3792V21.4777C35.7859 20.8477 35.6189 20.229 35.3027 19.684ZM19.3743 14.0874H19.8945L30.4058 20.1503L19.6433 26.3566L8.88091 20.1503L19.3743 14.0874ZM21.4371 41.8906L31.9304 35.8277L32.1995 35.3793V23.2536L21.4371 29.4779V41.8906Z" fill="black"/>
</svg>
