<svg width="140" height="56" viewBox="0 0 140 56" fill="none" xmlns="http://www.w3.org/2000/svg">
<path d="M49.6153 37.0475H53.7739V29.9184H55.582L59.9989 37.0475H64.4416L59.5598 29.1952C61.7296 28.5495 63.3568 27.0771 63.3568 24.2875V24.1842C63.3568 20.3614 60.593 18.5791 56.2278 18.5791H49.6153V37.0475ZM53.7739 27.0771V21.782H56.1244C58.1392 21.782 59.2757 22.4278 59.2757 24.3133V24.4167C59.2757 26.199 58.2167 27.0771 56.1244 27.0771H53.7739Z" fill="black"/>
<path d="M71.5796 37.3316C75.2733 37.3316 77.598 35.7044 78.037 32.7855H74.4984C74.2659 33.9221 73.4135 34.6712 71.683 34.6712C69.6424 34.6712 68.4284 33.3797 68.3251 31.1325H78.0629V30.0993C78.0629 25.269 74.9633 23.2285 71.4763 23.2285C67.5502 23.2285 64.528 25.9923 64.528 30.2542V30.4608C64.528 34.7745 67.4984 37.3316 71.5796 37.3316ZM68.3767 28.8336C68.6608 26.9222 69.7973 25.8115 71.4763 25.8115C73.2586 25.8115 74.2918 26.793 74.4209 28.8336H68.3767Z" fill="black"/>
<path d="M79.843 37.0475H83.5625V17.4167H79.843V37.0475Z" fill="black"/>
<path d="M90.6985 37.3316C92.9201 37.3316 94.2886 36.2984 94.986 34.9295V37.0475H98.7056V23.5385H94.986V31.4682C94.986 33.4572 93.7461 34.4387 92.1711 34.4387C90.5698 34.4387 89.82 33.5604 89.82 31.7265V23.5385H86.1009V32.2431C86.1009 35.7818 88.0638 37.3316 90.6985 37.3316Z" fill="black"/>
<path d="M101.245 37.0475H104.991V29.0661C104.991 27.2322 106.153 26.3022 107.599 26.3022C108.917 26.3022 109.717 27.0771 109.717 28.8078V37.0475H113.437V29.0661C113.437 27.2322 114.599 26.3022 116.045 26.3022C117.389 26.3022 118.164 27.0771 118.164 28.8078V37.0475H121.883V28.3945C121.883 24.8041 119.946 23.2285 117.44 23.2285C115.736 23.2285 113.98 23.9517 112.895 25.579C112.249 23.9776 110.906 23.2285 109.123 23.2285C107.108 23.2285 105.662 24.3392 104.991 25.6048V23.5384H101.245V37.0475Z" fill="black"/>
<path d="M130.532 37.3316C134.226 37.3316 136.551 35.7044 136.989 32.7855H133.451C133.218 33.9221 132.366 34.6712 130.635 34.6712C128.595 34.6712 127.381 33.3797 127.278 31.1325H137.016V30.0993C137.016 25.269 133.916 23.2285 130.429 23.2285C126.503 23.2285 123.48 25.9923 123.48 30.2542V30.4608C123.48 34.7745 126.451 37.3316 130.532 37.3316ZM127.329 28.8336C127.614 26.9222 128.75 25.8115 130.429 25.8115C132.211 25.8115 133.244 26.793 133.374 28.8336H127.329Z" fill="black"/>
<path fill-rule="evenodd" clip-rule="evenodd" d="M35.3033 19.684L35.0522 19.2356C34.7284 18.6932 34.2715 18.2425 33.7249 17.9261L21.6889 10.9843C21.1438 10.6682 20.5252 10.5011 19.8951 10.5H19.3749C18.7448 10.5011 18.1262 10.6682 17.5812 10.9843L5.5452 17.9441C5.00165 18.2584 4.55013 18.7099 4.23577 19.2535L3.98465 19.7019C3.66849 20.2469 3.50146 20.8656 3.50034 21.4956V35.3972C3.50146 36.0273 3.66849 36.6459 3.98465 37.1909L4.23577 37.6393C4.55826 38.1766 5.00795 38.6263 5.5452 38.9488L17.5991 45.8905C18.1414 46.2132 18.7619 46.3808 19.3929 46.3748H19.8951C20.5252 46.3737 21.1438 46.2066 21.6889 45.8905L33.7249 38.9309C34.2738 38.6236 34.7271 38.1704 35.0343 37.6214L35.3033 37.173C35.6157 36.6264 35.7825 36.0087 35.7877 35.3792V21.4777C35.7866 20.8477 35.6196 20.229 35.3033 19.684ZM19.3749 14.0874H19.8951L30.4065 20.1503L19.644 26.3566L8.88159 20.1503L19.3749 14.0874ZM21.4377 41.8906L31.9311 35.8277L32.2002 35.3793V23.2536L21.4377 29.4779V41.8906Z" fill="black"/>
</svg>
