<svg width="140" height="56" viewBox="0 0 140 56" fill="none" xmlns="http://www.w3.org/2000/svg">
<path d="M49.6143 37.0475H53.7729V29.9184H55.581L59.9979 37.0475H64.4406L59.5588 29.1952C61.7286 28.5495 63.3558 27.0771 63.3558 24.2875V24.1842C63.3558 20.3614 60.592 18.5791 56.2267 18.5791H49.6143V37.0475ZM53.7729 27.0771V21.782H56.1234C58.1382 21.782 59.2747 22.4278 59.2747 24.3133V24.4167C59.2747 26.199 58.2157 27.0771 56.1234 27.0771H53.7729Z" fill="black"/>
<path d="M71.5786 37.3316C75.2723 37.3316 77.597 35.7044 78.036 32.7855H74.4974C74.2649 33.9221 73.4125 34.6712 71.6819 34.6712C69.6414 34.6712 68.4274 33.3797 68.3241 31.1325H78.0619V30.0993C78.0619 25.269 74.9623 23.2285 71.4753 23.2285C67.5492 23.2285 64.527 25.9923 64.527 30.2542V30.4608C64.527 34.7745 67.4974 37.3316 71.5786 37.3316ZM68.3757 28.8336C68.6598 26.9222 69.7963 25.8115 71.4753 25.8115C73.2576 25.8115 74.2908 26.793 74.4199 28.8336H68.3757Z" fill="black"/>
<path d="M79.8419 37.0475H83.5615V17.4167H79.8419V37.0475Z" fill="black"/>
<path d="M90.6975 37.3317C92.9191 37.3317 94.2876 36.2985 94.985 34.9296V37.0476H98.7046V23.5386H94.985V31.4683C94.985 33.4573 93.7451 34.4388 92.1701 34.4388C90.5688 34.4388 89.819 33.5606 89.819 31.7266V23.5386H86.0999V32.2432C86.0999 35.7819 88.0628 37.3317 90.6975 37.3317Z" fill="black"/>
<path d="M101.244 37.0475H104.99V29.0661C104.99 27.2322 106.152 26.3022 107.598 26.3022C108.916 26.3022 109.716 27.0771 109.716 28.8078V37.0475H113.436V29.0661C113.436 27.2322 114.598 26.3022 116.044 26.3022C117.388 26.3022 118.163 27.0771 118.163 28.8078V37.0475H121.882V28.3945C121.882 24.8041 119.945 23.2285 117.439 23.2285C115.735 23.2285 113.979 23.9517 112.894 25.579C112.248 23.9776 110.905 23.2285 109.122 23.2285C107.107 23.2285 105.661 24.3392 104.99 25.6048V23.5384H101.244V37.0475Z" fill="black"/>
<path d="M130.531 37.3316C134.225 37.3316 136.55 35.7044 136.988 32.7855H133.45C133.217 33.9221 132.365 34.6712 130.634 34.6712C128.594 34.6712 127.38 33.3797 127.277 31.1325H137.015V30.0993C137.015 25.269 133.915 23.2285 130.428 23.2285C126.502 23.2285 123.479 25.9923 123.479 30.2542V30.4608C123.479 34.7745 126.45 37.3316 130.531 37.3316ZM127.328 28.8336C127.613 26.9222 128.749 25.8115 130.428 25.8115C132.21 25.8115 133.243 26.793 133.373 28.8336H127.328Z" fill="black"/>
<path fill-rule="evenodd" clip-rule="evenodd" d="M35.3023 19.684L35.0512 19.2356C34.7274 18.6932 34.2705 18.2425 33.7239 17.9261L21.6879 10.9843C21.1428 10.6682 20.5242 10.5011 19.8941 10.5H19.3739C18.7438 10.5011 18.1252 10.6682 17.5802 10.9843L5.54419 17.9441C5.00064 18.2584 4.54913 18.7099 4.23477 19.2535L3.98364 19.7019C3.66749 20.2469 3.50045 20.8656 3.49933 21.4956V35.3972C3.50045 36.0273 3.66749 36.6459 3.98364 37.1909L4.23477 37.6393C4.55726 38.1766 5.00694 38.6263 5.54419 38.9488L17.5981 45.8905C18.1404 46.2132 18.7609 46.3808 19.3919 46.3748H19.8941C20.5242 46.3737 21.1428 46.2066 21.6879 45.8905L33.7239 38.9309C34.2728 38.6236 34.7261 38.1704 35.0333 37.6214L35.3023 37.173C35.6147 36.6264 35.7815 36.0087 35.7867 35.3792V21.4777C35.7856 20.8477 35.6186 20.229 35.3023 19.684ZM19.3739 14.0874H19.8941L30.4055 20.1503L19.643 26.3566L8.88058 20.1503L19.3739 14.0874ZM21.4367 41.8906L31.9301 35.8277L32.1992 35.3793V23.2536L21.4367 29.4779V41.8906Z" fill="black"/>
</svg>
