<svg width="140" height="56" viewBox="0 0 140 56" fill="none" xmlns="http://www.w3.org/2000/svg">
<path fill-rule="evenodd" clip-rule="evenodd" d="M38.5706 16.75L27.0611 39.25H16.2503L21.0671 29.925H20.851C16.8772 35.0835 10.9482 38.4794 2.50034 39.25V30.0541C2.50034 30.0541 7.90465 29.7349 11.0817 26.3947H2.50034V16.7502H12.1448V24.6826L12.3613 24.6818L16.3025 16.7502H23.5963V24.6323L23.8127 24.632L27.9017 16.75H38.5706Z" fill="black"/>
<path d="M101.333 36.7665H104.439V18.9375H101.333V36.7665Z" fill="black"/>
<path fill-rule="evenodd" clip-rule="evenodd" d="M84.2095 36.5845C84.8845 36.8651 85.571 37.0055 86.2689 37.0055C87.4218 37.0055 88.4534 36.7248 89.3636 36.1635C90.2738 35.6022 90.9793 34.8286 91.4799 33.8425C91.9805 32.8488 92.2308 31.7224 92.2308 30.4632C92.2308 29.2041 91.9729 28.0777 91.4572 27.0841C90.9413 26.0904 90.2245 25.3205 89.3066 24.7744C88.3889 24.2207 87.3459 23.9476 86.1778 23.9552C85.4345 23.9552 84.7215 24.0993 84.0388 24.3875C83.3562 24.6758 82.7873 25.0854 82.3322 25.6163C82.297 25.6568 82.2629 25.6976 82.2298 25.7388V18.949H79.1123V36.7666H82.207L82.2008 35.1021C82.2808 35.2002 82.3664 35.2961 82.4573 35.3899C82.9503 35.8981 83.5344 36.2962 84.2095 36.5845ZM87.3953 33.706C86.887 34.017 86.3068 34.1725 85.6544 34.1725C85.0096 34.1725 84.418 34.0131 83.8795 33.6946C83.3409 33.3684 82.9124 32.9247 82.5938 32.3633C82.2828 31.8021 82.1273 31.1648 82.1273 30.4518C82.1198 29.7388 82.2714 29.1017 82.5824 28.5404C82.901 27.9715 83.3295 27.5316 83.8681 27.2206C84.4066 26.902 85.0021 26.7465 85.6544 26.7541C86.3068 26.7465 86.887 26.8982 87.3953 27.2092C87.911 27.5126 88.3054 27.9488 88.5785 28.5177C88.8592 29.079 88.9995 29.7237 88.9995 30.4518C88.9995 31.1801 88.8592 31.8248 88.5785 32.3861C88.3054 32.9475 87.911 33.3874 87.3953 33.706Z" fill="black"/>
<path d="M43.0704 20.0186H46.6203L49.7958 31.6155L53.1739 20.0186H56.1322L59.7958 31.3828L62.845 20.0186H66.099L61.2977 36.7667H58.237L54.5115 25.6647L51.0918 36.7667H47.997L43.0704 20.0186Z" fill="black"/>
<path fill-rule="evenodd" clip-rule="evenodd" d="M71.3416 37.0623C70.1051 37.07 68.9901 36.7968 67.9965 36.2432C67.0104 35.6818 66.233 34.9043 65.664 33.9107C65.1027 32.9171 64.8221 31.7831 64.8221 30.5087C64.8221 29.2723 65.1104 28.1536 65.6869 27.1523C66.2632 26.1511 67.0445 25.3698 68.0306 24.8085C69.0167 24.2472 70.1165 23.9666 71.3301 23.9666C72.6955 23.9666 73.8901 24.27 74.9141 24.8768C75.9457 25.4836 76.7156 26.3445 77.2239 27.4595C77.7396 28.567 77.9255 29.8375 77.7814 31.2711H68.0355C68.0627 31.8422 68.2052 32.3618 68.463 32.8298C68.7512 33.3456 69.1532 33.7476 69.669 34.0358C70.1849 34.3241 70.7612 34.4682 71.3985 34.4682C71.8839 34.4606 72.3352 34.3772 72.7524 34.218C73.1696 34.0511 73.5222 33.8273 73.8105 33.5466C74.1064 33.266 74.315 32.9475 74.4364 32.591H77.6904C77.4931 33.4632 77.0987 34.2407 76.5071 34.9233C75.9154 35.5985 75.1721 36.1256 74.277 36.5048C73.382 36.8841 72.4035 37.07 71.3416 37.0623ZM68.4744 28.1422C68.2926 28.4592 68.1666 28.8005 68.0965 29.1662H74.5569C74.51 28.7042 74.3674 28.2832 74.1291 27.9033C73.856 27.4557 73.4844 27.1106 73.0141 26.8679C72.5439 26.6176 72.0129 26.4924 71.4212 26.4924C70.7916 26.4924 70.219 26.6365 69.7031 26.9248C69.1874 27.213 68.7777 27.6188 68.4744 28.1422Z" fill="black"/>
<path d="M94.5181 24.2282C94.5181 23.2118 94.7493 22.3092 95.2121 21.5203C95.6747 20.7239 96.3233 20.1057 97.1577 19.6657C97.9996 19.2182 98.982 18.9868 100.104 18.9717V21.7365C99.5811 21.7441 99.1336 21.854 98.762 22.0664C98.3978 22.2712 98.1172 22.5708 97.92 22.9653C97.7385 23.3284 97.6405 23.7494 97.6261 24.2282H100.036V26.8565H97.6242V36.7665H94.5181V26.8565H92.5156V24.2282H94.5181Z" fill="black"/>
<path fill-rule="evenodd" clip-rule="evenodd" d="M112.335 37.0395C111.068 37.0395 109.934 36.7626 108.933 36.209C107.94 35.6476 107.158 34.874 106.589 33.8879C106.028 32.8942 105.747 31.7679 105.747 30.5086C105.747 29.242 106.028 28.1118 106.589 27.1181C107.158 26.1169 107.94 25.3394 108.933 24.7857C109.934 24.2319 111.068 23.9551 112.335 23.9551C113.609 23.9551 114.747 24.2319 115.748 24.7857C116.757 25.3394 117.542 26.1131 118.104 27.1067C118.665 28.1004 118.949 29.2344 118.957 30.5086C118.949 31.7679 118.665 32.8942 118.104 33.8879C117.55 34.874 116.769 35.6476 115.76 36.209C114.751 36.7626 113.609 37.0395 112.335 37.0395ZM112.335 34.1837C113.003 34.1837 113.594 34.032 114.11 33.7286C114.626 33.4176 115.024 32.9852 115.305 32.4315C115.585 31.8702 115.726 31.2292 115.726 30.5086C115.726 29.7805 115.585 29.1357 115.305 28.5745C115.024 28.0132 114.626 27.5808 114.11 27.2774C113.594 26.9664 113.003 26.8109 112.335 26.8109C111.675 26.8109 111.087 26.9664 110.572 27.2774C110.063 27.5808 109.669 28.0132 109.388 28.5745C109.108 29.1357 108.971 29.7805 108.979 30.5086C108.979 31.2292 109.119 31.8702 109.4 32.4315C109.688 32.9852 110.082 33.4176 110.583 33.7286C111.091 34.032 111.675 34.1837 112.335 34.1837Z" fill="black"/>
<path d="M122.313 24.2283H118.855L122.598 36.7666H125.624L128.086 28.7584L130.744 36.7666H133.725L137.48 24.2283H134.351L132.221 32.0326L129.868 24.2283H126.842L124.5 32.2045L122.313 24.2283Z" fill="black"/>
</svg>
