<svg width="140" height="56" viewBox="0 0 140 56" fill="none" xmlns="http://www.w3.org/2000/svg">
<path fill-rule="evenodd" clip-rule="evenodd" d="M38.5709 16.75L27.0614 39.25H16.2507L21.0674 29.925H20.8513C16.8775 35.0835 10.9485 38.4794 2.50067 39.25V30.0541C2.50067 30.0541 7.90498 29.7349 11.082 26.3947H2.50067V16.7502H12.1452V24.6826L12.3616 24.6818L16.3028 16.7502H23.5967V24.6323L23.813 24.632L27.902 16.75H38.5709Z" fill="black"/>
<path d="M101.334 36.7665H104.44V18.9375H101.334V36.7665Z" fill="black"/>
<path fill-rule="evenodd" clip-rule="evenodd" d="M84.2099 36.5845C84.8849 36.8651 85.5714 37.0055 86.2692 37.0055C87.4221 37.0055 88.4537 36.7248 89.364 36.1635C90.2741 35.6022 90.9796 34.8286 91.4802 33.8425C91.9809 32.8488 92.2311 31.7224 92.2311 30.4632C92.2311 29.2041 91.9732 28.0777 91.4575 27.0841C90.9416 26.0904 90.2249 25.3205 89.307 24.7744C88.3892 24.2207 87.3462 23.9476 86.1781 23.9552C85.4349 23.9552 84.7219 24.0993 84.0391 24.3875C83.3565 24.6758 82.7876 25.0854 82.3325 25.6163C82.2974 25.6568 82.2632 25.6976 82.2301 25.7388V18.949H79.1126V36.7666H82.2074L82.2011 35.1021C82.2811 35.2002 82.3667 35.2961 82.4576 35.3899C82.9506 35.8981 83.5347 36.2962 84.2099 36.5845ZM87.3956 33.706C86.8874 34.017 86.3071 34.1725 85.6547 34.1725C85.01 34.1725 84.4184 34.0131 83.8799 33.6946C83.3412 33.3684 82.9127 32.9247 82.5941 32.3633C82.2831 31.8021 82.1276 31.1648 82.1276 30.4518C82.1201 29.7388 82.2717 29.1017 82.5827 28.5404C82.9014 27.9715 83.3299 27.5316 83.8685 27.2206C84.407 26.902 85.0025 26.7465 85.6547 26.7541C86.3071 26.7465 86.8874 26.8982 87.3956 27.2092C87.9114 27.5126 88.3057 27.9488 88.5789 28.5177C88.8595 29.079 88.9999 29.7237 88.9999 30.4518C88.9999 31.1801 88.8595 31.8248 88.5789 32.3861C88.3057 32.9475 87.9114 33.3874 87.3956 33.706Z" fill="black"/>
<path d="M43.0707 20.0186H46.6206L49.7961 31.6155L53.1742 20.0186H56.1325L59.7961 31.3828L62.8454 20.0186H66.0994L61.298 36.7667H58.2374L54.5119 25.6647L51.0921 36.7667H47.9974L43.0707 20.0186Z" fill="black"/>
<path fill-rule="evenodd" clip-rule="evenodd" d="M71.3419 37.0623C70.1054 37.07 68.9905 36.7968 67.9968 36.2432C67.0107 35.6818 66.2333 34.9043 65.6643 33.9107C65.1031 32.9171 64.8224 31.7831 64.8224 30.5087C64.8224 29.2723 65.1107 28.1536 65.6872 27.1523C66.2636 26.1511 67.0448 25.3698 68.0309 24.8085C69.0171 24.2472 70.1168 23.9666 71.3305 23.9666C72.6958 23.9666 73.8904 24.27 74.9144 24.8768C75.9461 25.4836 76.716 26.3445 77.2242 27.4595C77.74 28.567 77.9258 29.8375 77.7817 31.2711H68.0358C68.0631 31.8422 68.2056 32.3618 68.4633 32.8298C68.7516 33.3456 69.1536 33.7476 69.6693 34.0358C70.1852 34.3241 70.7616 34.4682 71.3988 34.4682C71.8842 34.4606 72.3356 34.3772 72.7527 34.218C73.1699 34.0511 73.5226 33.8273 73.8108 33.5466C74.1067 33.266 74.3153 32.9475 74.4367 32.591H77.6907C77.4935 33.4632 77.0991 34.2407 76.5074 34.9233C75.9157 35.5985 75.1724 36.1256 74.2773 36.5048C73.3823 36.8841 72.4038 37.07 71.3419 37.0623ZM68.4747 28.1422C68.2929 28.4592 68.1669 28.8005 68.0968 29.1662H74.5572C74.5103 28.7042 74.3677 28.2832 74.1294 27.9033C73.8563 27.4557 73.4847 27.1106 73.0144 26.8679C72.5442 26.6176 72.0132 26.4924 71.4216 26.4924C70.7919 26.4924 70.2193 26.6365 69.7034 26.9248C69.1877 27.213 68.7781 27.6188 68.4747 28.1422Z" fill="black"/>
<path d="M94.5184 24.2282C94.5184 23.2118 94.7497 22.3092 95.2124 21.5203C95.6751 20.7239 96.3237 20.1057 97.1581 19.6657C97.9999 19.2182 98.9823 18.9868 100.105 18.9717V21.7365C99.5814 21.7441 99.1339 21.854 98.7623 22.0664C98.3982 22.2712 98.1176 22.5708 97.9203 22.9653C97.7388 23.3284 97.6408 23.7494 97.6264 24.2282H100.037V26.8565H97.6246V36.7665H94.5184V26.8565H92.5159V24.2282H94.5184Z" fill="black"/>
<path fill-rule="evenodd" clip-rule="evenodd" d="M112.335 37.0395C111.069 37.0395 109.935 36.7626 108.933 36.209C107.94 35.6476 107.159 34.874 106.59 33.8879C106.028 32.8942 105.748 31.7679 105.748 30.5086C105.748 29.242 106.028 28.1118 106.59 27.1181C107.159 26.1169 107.94 25.3394 108.933 24.7857C109.935 24.2319 111.069 23.9551 112.335 23.9551C113.61 23.9551 114.748 24.2319 115.749 24.7857C116.758 25.3394 117.543 26.1131 118.104 27.1067C118.665 28.1004 118.95 29.2344 118.957 30.5086C118.95 31.7679 118.665 32.8942 118.104 33.8879C117.55 34.874 116.769 35.6476 115.76 36.209C114.751 36.7626 113.61 37.0395 112.335 37.0395ZM112.335 34.1837C113.003 34.1837 113.595 34.032 114.11 33.7286C114.626 33.4176 115.024 32.9852 115.305 32.4315C115.586 31.8702 115.726 31.2292 115.726 30.5086C115.726 29.7805 115.586 29.1357 115.305 28.5745C115.024 28.0132 114.626 27.5808 114.11 27.2774C113.595 26.9664 113.003 26.8109 112.335 26.8109C111.676 26.8109 111.088 26.9664 110.572 27.2774C110.064 27.5808 109.669 28.0132 109.389 28.5745C109.108 29.1357 108.971 29.7805 108.979 30.5086C108.979 31.2292 109.119 31.8702 109.4 32.4315C109.688 32.9852 110.083 33.4176 110.583 33.7286C111.091 34.032 111.676 34.1837 112.335 34.1837Z" fill="black"/>
<path d="M122.314 24.2283H118.855L122.598 36.7666H125.625L128.087 28.7584L130.744 36.7666H133.726L137.481 24.2283H134.352L132.222 32.0326L129.868 24.2283H126.842L124.5 32.2045L122.314 24.2283Z" fill="black"/>
</svg>
